<?xml version="1.0" encoding="UTF-8" standalone="no"?>
<!-- Created with Inkscape (http://www.inkscape.org/) -->

<svg
   xmlns:dc="http://purl.org/dc/elements/1.1/"
   xmlns:cc="http://creativecommons.org/ns#"
   xmlns:rdf="http://www.w3.org/1999/02/22-rdf-syntax-ns#"
   xmlns:svg="http://www.w3.org/2000/svg"
   xmlns="http://www.w3.org/2000/svg"
   xmlns:sodipodi="http://sodipodi.sourceforge.net/DTD/sodipodi-0.dtd"
   xmlns:inkscape="http://www.inkscape.org/namespaces/inkscape"
   width="1366"
   height="368"
   viewBox="0 0 1366 368.00001"
   id="svg2"
   version="1.1"
   inkscape:version="0.91 r13725"
   sodipodi:docname="code-background.svg">
  <defs
     id="defs4" />
  <sodipodi:namedview
     id="base"
     pagecolor="#ffffff"
     bordercolor="#666666"
     borderopacity="1.0"
     inkscape:pageopacity="0.0"
     inkscape:pageshadow="2"
     inkscape:zoom="0.49980848"
     inkscape:cx="674.26492"
     inkscape:cy="69.026212"
     inkscape:document-units="px"
     inkscape:current-layer="layer1"
     showgrid="false"
     units="px"
     inkscape:window-width="1366"
     inkscape:window-height="718"
     inkscape:window-x="0"
     inkscape:window-y="24"
     inkscape:window-maximized="1" />
  <metadata
     id="metadata7">
    <rdf:RDF>
      <cc:Work
         rdf:about="">
        <dc:format>image/svg+xml</dc:format>
        <dc:type
           rdf:resource="http://purl.org/dc/dcmitype/StillImage" />
        <dc:title></dc:title>
      </cc:Work>
    </rdf:RDF>
  </metadata>
  <g
     inkscape:label="Layer 1"
     inkscape:groupmode="layer"
     id="layer1"
     transform="translate(0,-684.36216)">
    <g
       id="g4416"
       style="opacity:0.504">
      <path
         inkscape:transform-center-y="-2.527159"
         d="m 200.36832,849.8038 c -1.12959,1.95652 -21.46224,1.95651 -22.59183,0 -1.1296,-1.95651 9.03673,-19.5651 11.29591,-19.5651 2.25919,0 12.42551,17.60859 11.29592,19.5651 z"
         inkscape:randomized="0"
         inkscape:rounded="0.1"
         inkscape:flatsided="true"
         sodipodi:arg2="1.5707963"
         sodipodi:arg1="0.52359878"
         sodipodi:r2="6.5217004"
         sodipodi:r1="13.043401"
         sodipodi:cy="843.2821"
         sodipodi:cx="189.07241"
         sodipodi:sides="3"
         id="path4358"
         style="opacity:0.03599997;fill:#7600fa;fill-opacity:1;fill-rule:nonzero;stroke:#000000;stroke-width:5;stroke-linecap:round;stroke-linejoin:bevel;stroke-miterlimit:4;stroke-dasharray:none;stroke-dashoffset:0;stroke-opacity:1"
         sodipodi:type="star" />
      <circle
         r="12.004598"
         cy="728.23804"
         cx="663.25403"
         id="path4360"
         style="opacity:0.03599997;fill:#7600fa;fill-opacity:1;fill-rule:nonzero;stroke:#000000;stroke-width:5;stroke-linecap:round;stroke-linejoin:bevel;stroke-miterlimit:4;stroke-dasharray:none;stroke-dashoffset:0;stroke-opacity:1" />
      <rect
         ry="7.9233298"
         y="982.33533"
         x="628.2406"
         height="36.013794"
         width="36.013794"
         id="rect4362"
         style="opacity:0.03599997;fill:#7600fa;fill-opacity:1;fill-rule:nonzero;stroke:#000000;stroke-width:5;stroke-linecap:round;stroke-linejoin:bevel;stroke-miterlimit:4;stroke-dasharray:none;stroke-dashoffset:0;stroke-opacity:1" />
      <path
         inkscape:transform-center-y="-7.2097028"
         d="m 512.9453,999.78548 c -1.81618,3.14572 -29.6303,15.52932 -33.18329,14.77412 -3.55299,-0.7552 -23.92557,-23.38122 -24.30525,-26.99368 -0.37969,-3.61247 14.84349,-29.97977 18.16181,-31.45719 3.31833,-1.47741 33.09935,4.85274 35.52988,7.55211 2.43052,2.69937 5.61303,32.97892 3.79685,36.12464 z"
         inkscape:randomized="0"
         inkscape:rounded="0.1"
         inkscape:flatsided="true"
         sodipodi:arg2="1.1519173"
         sodipodi:arg1="0.52359878"
         sodipodi:r2="15.449363"
         sodipodi:r1="30.898726"
         sodipodi:cy="984.33612"
         sodipodi:cx="486.18622"
         sodipodi:sides="5"
         id="path4364"
         style="opacity:0.03599997;fill:#7600fa;fill-opacity:1;fill-rule:nonzero;stroke:#000000;stroke-width:5;stroke-linecap:round;stroke-linejoin:bevel;stroke-miterlimit:4;stroke-dasharray:none;stroke-dashoffset:0;stroke-opacity:1"
         sodipodi:type="star" />
      <path
         sodipodi:type="star"
         style="opacity:0.03599997;fill:#7600fa;fill-opacity:1;fill-rule:nonzero;stroke:#000000;stroke-width:5;stroke-linecap:round;stroke-linejoin:bevel;stroke-miterlimit:4;stroke-dasharray:none;stroke-dashoffset:0;stroke-opacity:1"
         id="path4366"
         sodipodi:sides="5"
         sodipodi:cx="160.0613"
         sodipodi:cy="977.33339"
         sodipodi:r1="13.043401"
         sodipodi:r2="6.5217004"
         sodipodi:arg1="0.52359878"
         sodipodi:arg2="1.1519173"
         inkscape:flatsided="false"
         inkscape:rounded="0.1"
         inkscape:randomized="0"
         d="m 171.35721,983.85507 c -0.43308,0.75013 -7.85202,-0.91613 -8.6433,-0.56383 -0.79128,0.35231 -4.51725,6.98059 -5.36449,6.80051 -0.84724,-0.18009 -1.55511,-7.75082 -2.13469,-8.39451 -0.57958,-0.64368 -8.03484,-2.13904 -8.12538,-3.00046 -0.0905,-0.86142 6.8909,-3.87413 7.32399,-4.62426 0.43308,-0.75012 -0.44856,-8.30258 0.34273,-8.65489 0.79128,-0.3523 5.81392,5.35647 6.66116,5.53656 0.84724,0.18008 7.75762,-2.99224 8.3372,-2.34855 0.57958,0.64368 -3.2977,7.18461 -3.20716,8.04603 0.0905,0.86142 5.24302,6.45328 4.80994,7.2034 z"
         inkscape:transform-center-y="-2.527159" />
      <path
         sodipodi:type="star"
         style="opacity:0.03599997;fill:#7600fa;fill-opacity:1;fill-rule:nonzero;stroke:#000000;stroke-width:5;stroke-linecap:round;stroke-linejoin:bevel;stroke-miterlimit:4;stroke-dasharray:none;stroke-dashoffset:0;stroke-opacity:1"
         id="path4368"
         sodipodi:sides="5"
         sodipodi:cx="1049.4019"
         sodipodi:cy="774.25566"
         sodipodi:r1="30.898726"
         sodipodi:r2="15.449363"
         sodipodi:arg1="0.52359878"
         sodipodi:arg2="1.1519173"
         inkscape:flatsided="true"
         inkscape:rounded="0.1"
         inkscape:randomized="0"
         d="m 1076.1609,789.70504 c -1.8161,3.14572 -29.6303,15.52936 -33.1833,14.77415 -3.5529,-0.75521 -23.9255,-23.38125 -24.3052,-26.99372 -0.3797,-3.61246 14.8435,-29.97977 18.1618,-31.45718 3.3183,-1.47742 33.0994,4.85273 35.5299,7.5521 2.4305,2.69938 5.613,32.97893 3.7968,36.12465 z"
         inkscape:transform-center-y="-7.2097028" />
      <path
         inkscape:transform-center-y="-7.2097028"
         d="m 94.785113,816.71535 c -1.816182,3.14572 -29.630301,15.52937 -33.183288,14.77416 -3.552987,-0.75522 -23.925567,-23.38126 -24.305253,-26.99372 -0.379685,-3.61247 14.843487,-29.97977 18.161816,-31.45719 3.318328,-1.47741 33.099346,4.85274 35.529872,7.55211 2.430525,2.69937 5.613034,32.97893 3.796853,36.12464 z"
         inkscape:randomized="0"
         inkscape:rounded="0.1"
         inkscape:flatsided="true"
         sodipodi:arg2="1.1519173"
         sodipodi:arg1="0.52359878"
         sodipodi:r2="15.449363"
         sodipodi:r1="30.898726"
         sodipodi:cy="801.26602"
         sodipodi:cx="68.02603"
         sodipodi:sides="5"
         id="path4370"
         style="opacity:0.03599997;fill:#7600fa;fill-opacity:1;fill-rule:nonzero;stroke:#000000;stroke-width:5;stroke-linecap:round;stroke-linejoin:bevel;stroke-miterlimit:4;stroke-dasharray:none;stroke-dashoffset:0;stroke-opacity:1"
         sodipodi:type="star" />
      <path
         inkscape:transform-center-y="-2.527159"
         d="m 1040.6902,880.81565 c -0.4331,0.75012 -7.852,-0.91614 -8.6433,-0.56383 -0.7913,0.3523 -4.5172,6.98058 -5.3645,6.8005 -0.8472,-0.18009 -1.5551,-7.75082 -2.1347,-8.39451 -0.5796,-0.64368 -8.0348,-2.13904 -8.1254,-3.00046 -0.09,-0.86142 6.8909,-3.87413 7.324,-4.62425 0.4331,-0.75013 -0.4485,-8.30259 0.3428,-8.65489 0.7912,-0.35231 5.8139,5.35646 6.6611,5.53655 0.8473,0.18009 7.7576,-2.99224 8.3372,-2.34855 0.5796,0.64368 -3.2977,7.18461 -3.2071,8.04603 0.091,0.86142 5.243,6.45328 4.8099,7.20341 z"
         inkscape:randomized="0"
         inkscape:rounded="0.1"
         inkscape:flatsided="false"
         sodipodi:arg2="1.1519173"
         sodipodi:arg1="0.52359878"
         sodipodi:r2="6.5217004"
         sodipodi:r1="13.043401"
         sodipodi:cy="874.29397"
         sodipodi:cx="1029.3943"
         sodipodi:sides="5"
         id="path4372"
         style="opacity:0.03599997;fill:#7600fa;fill-opacity:1;fill-rule:nonzero;stroke:#000000;stroke-width:5;stroke-linecap:round;stroke-linejoin:bevel;stroke-miterlimit:4;stroke-dasharray:none;stroke-dashoffset:0;stroke-opacity:1"
         sodipodi:type="star" />
      <rect
         style="opacity:0.03599997;fill:#7600fa;fill-opacity:1;fill-rule:nonzero;stroke:#000000;stroke-width:5;stroke-linecap:round;stroke-linejoin:bevel;stroke-miterlimit:4;stroke-dasharray:none;stroke-dashoffset:0;stroke-opacity:1"
         id="rect4374"
         width="36.013794"
         height="36.013794"
         x="1023.392"
         y="988.33765"
         ry="7.9233298" />
      <circle
         style="opacity:0.03599997;fill:#7600fa;fill-opacity:1;fill-rule:nonzero;stroke:#000000;stroke-width:5;stroke-linecap:round;stroke-linejoin:bevel;stroke-miterlimit:4;stroke-dasharray:none;stroke-dashoffset:0;stroke-opacity:1"
         id="circle4376"
         cx="307.11765"
         cy="997.34106"
         r="12.004598" />
      <path
         sodipodi:type="star"
         style="opacity:0.03599997;fill:#7600fa;fill-opacity:1;fill-rule:nonzero;stroke:#000000;stroke-width:5;stroke-linecap:round;stroke-linejoin:bevel;stroke-miterlimit:4;stroke-dasharray:none;stroke-dashoffset:0;stroke-opacity:1"
         id="path4378"
         sodipodi:sides="3"
         sodipodi:cx="381.14597"
         sodipodi:cy="868.29169"
         sodipodi:r1="13.043401"
         sodipodi:r2="6.5217004"
         sodipodi:arg1="0.52359878"
         sodipodi:arg2="1.5707963"
         inkscape:flatsided="true"
         inkscape:rounded="0.1"
         inkscape:randomized="0"
         d="m 392.44188,874.81339 c -1.12959,1.95651 -21.46224,1.95651 -22.59183,0 -1.12959,-1.95651 9.03673,-19.5651 11.29592,-19.5651 2.25918,0 12.4255,17.60859 11.29591,19.5651 z"
         inkscape:transform-center-y="-2.527159" />
      <path
         sodipodi:type="star"
         style="opacity:0.03599997;fill:#7600fa;fill-opacity:1;fill-rule:nonzero;stroke:#000000;stroke-width:5;stroke-linecap:round;stroke-linejoin:bevel;stroke-miterlimit:4;stroke-dasharray:none;stroke-dashoffset:0;stroke-opacity:1"
         id="path4380"
         sodipodi:sides="3"
         sodipodi:cx="1315.5039"
         sodipodi:cy="729.23842"
         sodipodi:r1="13.043401"
         sodipodi:r2="6.5217004"
         sodipodi:arg1="0.52359878"
         sodipodi:arg2="1.5707963"
         inkscape:flatsided="true"
         inkscape:rounded="0.1"
         inkscape:randomized="0"
         d="m 1326.7998,735.7601 c -1.1296,1.95651 -21.4622,1.95651 -22.5918,0 -1.1296,-1.95651 9.0367,-19.5651 11.2959,-19.5651 2.2592,0 12.4255,17.60859 11.2959,19.5651 z"
         inkscape:transform-center-y="-2.527159" />
      <circle
         style="opacity:0.03599997;fill:#7600fa;fill-opacity:1;fill-rule:nonzero;stroke:#000000;stroke-width:5;stroke-linecap:round;stroke-linejoin:bevel;stroke-miterlimit:4;stroke-dasharray:none;stroke-dashoffset:0;stroke-opacity:1"
         id="circle4382"
         cx="503.19275"
         cy="769.2536"
         r="12.004598" />
      <rect
         style="opacity:0.03599997;fill:#7600fa;fill-opacity:1;fill-rule:nonzero;stroke:#000000;stroke-width:5;stroke-linecap:round;stroke-linejoin:bevel;stroke-miterlimit:4;stroke-dasharray:none;stroke-dashoffset:0;stroke-opacity:1"
         id="rect4384"
         width="36.013794"
         height="36.013794"
         x="46.017624"
         y="931.3158"
         ry="7.9233298" />
      <path
         inkscape:transform-center-y="-7.2097028"
         d="m 1278.2383,1008.789 c -1.8162,3.1457 -29.6303,15.5293 -33.1833,14.7741 -3.5529,-0.7552 -23.9255,-23.3812 -24.3052,-26.9937 -0.3797,-3.61247 14.8435,-29.97978 18.1618,-31.45719 3.3183,-1.47742 33.0994,4.85273 35.5299,7.55211 2.4305,2.69937 5.613,32.97888 3.7968,36.12468 z"
         inkscape:randomized="0"
         inkscape:rounded="0.1"
         inkscape:flatsided="true"
         sodipodi:arg2="1.1519173"
         sodipodi:arg1="0.52359878"
         sodipodi:r2="15.449363"
         sodipodi:r1="30.898726"
         sodipodi:cy="993.33959"
         sodipodi:cx="1251.4793"
         sodipodi:sides="5"
         id="path4386"
         style="opacity:0.03599997;fill:#7600fa;fill-opacity:1;fill-rule:nonzero;stroke:#000000;stroke-width:5;stroke-linecap:round;stroke-linejoin:bevel;stroke-miterlimit:4;stroke-dasharray:none;stroke-dashoffset:0;stroke-opacity:1"
         sodipodi:type="star" />
      <circle
         r="12.004598"
         cy="734.2403"
         cx="826.31647"
         id="circle4388"
         style="opacity:0.03599997;fill:#7600fa;fill-opacity:1;fill-rule:nonzero;stroke:#000000;stroke-width:5;stroke-linecap:round;stroke-linejoin:bevel;stroke-miterlimit:4;stroke-dasharray:none;stroke-dashoffset:0;stroke-opacity:1" />
      <circle
         r="12.004598"
         cy="973.33185"
         cx="959.36749"
         id="circle4390"
         style="opacity:0.03599997;fill:#7600fa;fill-opacity:1;fill-rule:nonzero;stroke:#000000;stroke-width:5;stroke-linecap:round;stroke-linejoin:bevel;stroke-miterlimit:4;stroke-dasharray:none;stroke-dashoffset:0;stroke-opacity:1" />
      <circle
         r="12.004598"
         cy="766.25256"
         cx="352.13489"
         id="circle4392"
         style="opacity:0.03599997;fill:#7600fa;fill-opacity:1;fill-rule:nonzero;stroke:#000000;stroke-width:5;stroke-linecap:round;stroke-linejoin:bevel;stroke-miterlimit:4;stroke-dasharray:none;stroke-dashoffset:0;stroke-opacity:1" />
      <path
         inkscape:transform-center-y="-2.527159"
         d="m 840.61354,1004.8631 c -1.12959,1.9565 -21.46224,1.9565 -22.59183,0 -1.12959,-1.9565 9.03673,-19.56507 11.29592,-19.56507 2.25918,0 12.4255,17.60857 11.29591,19.56507 z"
         inkscape:randomized="0"
         inkscape:rounded="0.1"
         inkscape:flatsided="true"
         sodipodi:arg2="1.5707963"
         sodipodi:arg1="0.52359878"
         sodipodi:r2="6.5217004"
         sodipodi:r1="13.043401"
         sodipodi:cy="998.34146"
         sodipodi:cx="829.31765"
         sodipodi:sides="3"
         id="path4394"
         style="opacity:0.03599997;fill:#7600fa;fill-opacity:1;fill-rule:nonzero;stroke:#000000;stroke-width:5;stroke-linecap:round;stroke-linejoin:bevel;stroke-miterlimit:4;stroke-dasharray:none;stroke-dashoffset:0;stroke-opacity:1"
         sodipodi:type="star" />
      <path
         inkscape:transform-center-y="-2.527159"
         d="m 744.5768,796.78348 c -1.12959,1.95651 -21.46224,1.95651 -22.59183,0 -1.12959,-1.95651 9.03673,-19.5651 11.29591,-19.5651 2.25919,0 12.42551,17.60859 11.29592,19.5651 z"
         inkscape:randomized="0"
         inkscape:rounded="0.1"
         inkscape:flatsided="true"
         sodipodi:arg2="1.5707963"
         sodipodi:arg1="0.52359878"
         sodipodi:r2="6.5217004"
         sodipodi:r1="13.043401"
         sodipodi:cy="790.2618"
         sodipodi:cx="733.28086"
         sodipodi:sides="3"
         id="path4396"
         style="opacity:0.03599997;fill:#7600fa;fill-opacity:1;fill-rule:nonzero;stroke:#000000;stroke-width:5;stroke-linecap:round;stroke-linejoin:bevel;stroke-miterlimit:4;stroke-dasharray:none;stroke-dashoffset:0;stroke-opacity:1"
         sodipodi:type="star" />
      <path
         sodipodi:type="star"
         style="opacity:0.03599997;fill:#7600fa;fill-opacity:1;fill-rule:nonzero;stroke:#000000;stroke-width:5;stroke-linecap:round;stroke-linejoin:bevel;stroke-miterlimit:4;stroke-dasharray:none;stroke-dashoffset:0;stroke-opacity:1"
         id="path4398"
         sodipodi:sides="5"
         sodipodi:cx="619.23718"
         sodipodi:cy="829.27671"
         sodipodi:r1="30.898726"
         sodipodi:r2="15.449363"
         sodipodi:arg1="0.52359878"
         sodipodi:arg2="1.1519173"
         inkscape:flatsided="true"
         inkscape:rounded="0.1"
         inkscape:randomized="0"
         d="m 645.99626,844.7261 c -1.81618,3.14571 -29.6303,15.52936 -33.18328,14.77415 -3.55299,-0.75521 -23.92557,-23.38126 -24.30526,-26.99372 -0.37968,-3.61247 14.84349,-29.97977 18.16182,-31.45719 3.31833,-1.47741 33.09935,4.85274 35.52987,7.55211 2.43053,2.69937 5.61304,32.97893 3.79685,36.12465 z"
         inkscape:transform-center-y="-7.2097028" />
      <circle
         style="opacity:0.03599997;fill:#7600fa;fill-opacity:1;fill-rule:nonzero;stroke:#000000;stroke-width:5;stroke-linecap:round;stroke-linejoin:bevel;stroke-miterlimit:4;stroke-dasharray:none;stroke-dashoffset:0;stroke-opacity:1"
         id="circle4400"
         cx="596.22833"
         cy="927.31427"
         r="12.004598" />
      <rect
         style="opacity:0.03599997;fill:#7600fa;fill-opacity:1;fill-rule:nonzero;stroke:#000000;stroke-width:5;stroke-linecap:round;stroke-linejoin:bevel;stroke-miterlimit:4;stroke-dasharray:none;stroke-dashoffset:0;stroke-opacity:1"
         id="rect4402"
         width="36.013794"
         height="36.013794"
         x="831.31842"
         y="876.29474"
         ry="7.9233298" />
      <rect
         ry="7.9233298"
         y="865.29053"
         x="1142.4375"
         height="36.013794"
         width="36.013794"
         id="rect4404"
         style="opacity:0.03599997;fill:#7600fa;fill-opacity:1;fill-rule:nonzero;stroke:#000000;stroke-width:5;stroke-linecap:round;stroke-linejoin:bevel;stroke-miterlimit:4;stroke-dasharray:none;stroke-dashoffset:0;stroke-opacity:1" />
      <circle
         r="12.004598"
         cy="835.27893"
         cx="896.34332"
         id="circle4406"
         style="opacity:0.03599997;fill:#7600fa;fill-opacity:1;fill-rule:nonzero;stroke:#000000;stroke-width:5;stroke-linecap:round;stroke-linejoin:bevel;stroke-miterlimit:4;stroke-dasharray:none;stroke-dashoffset:0;stroke-opacity:1" />
      <circle
         style="opacity:0.03599997;fill:#7600fa;fill-opacity:1;fill-rule:nonzero;stroke:#000000;stroke-width:5;stroke-linecap:round;stroke-linejoin:bevel;stroke-miterlimit:4;stroke-dasharray:none;stroke-dashoffset:0;stroke-opacity:1"
         id="circle4408"
         cx="234.08968"
         cy="744.24408"
         r="12.004598" />
      <path
         sodipodi:type="star"
         style="opacity:0.03599997;fill:#7600fa;fill-opacity:1;fill-rule:nonzero;stroke:#000000;stroke-width:5;stroke-linecap:round;stroke-linejoin:bevel;stroke-miterlimit:4;stroke-dasharray:none;stroke-dashoffset:0;stroke-opacity:1"
         id="path4410"
         sodipodi:sides="5"
         sodipodi:cx="1247.4778"
         sodipodi:cy="804.26712"
         sodipodi:r1="13.043401"
         sodipodi:r2="6.5217004"
         sodipodi:arg1="0.52359878"
         sodipodi:arg2="1.1519173"
         inkscape:flatsided="false"
         inkscape:rounded="0.1"
         inkscape:randomized="0"
         d="m 1258.7737,810.78879 c -0.4331,0.75012 -7.852,-0.91613 -8.6433,-0.56383 -0.7913,0.3523 -4.5173,6.98059 -5.3645,6.8005 -0.8472,-0.18009 -1.5551,-7.75081 -2.1347,-8.3945 -0.5796,-0.64369 -8.0348,-2.13904 -8.1254,-3.00046 -0.091,-0.86143 6.8909,-3.87414 7.324,-4.62426 0.4331,-0.75012 -0.4485,-8.30259 0.3428,-8.65489 0.7912,-0.3523 5.8139,5.35647 6.6611,5.53655 0.8473,0.18009 7.7576,-2.99224 8.3372,-2.34855 0.5796,0.64369 -3.2977,7.18461 -3.2071,8.04604 0.091,0.86142 5.243,6.45328 4.8099,7.2034 z"
         inkscape:transform-center-y="-2.527159" />
      <path
         inkscape:transform-center-y="-2.527159"
         d="m 730.57137,912.82785 c -0.43309,0.75013 -7.85202,-0.91613 -8.6433,-0.56383 -0.79129,0.3523 -4.51725,6.98059 -5.36449,6.8005 -0.84724,-0.18008 -1.55512,-7.75081 -2.1347,-8.3945 -0.57958,-0.64369 -8.03484,-2.13904 -8.12538,-3.00046 -0.0905,-0.86142 6.89091,-3.87413 7.32399,-4.62426 0.43309,-0.75012 -0.44855,-8.30259 0.34273,-8.65489 0.79129,-0.3523 5.81393,5.35647 6.66117,5.53656 0.84724,0.18008 7.75762,-2.99224 8.3372,-2.34856 0.57958,0.64369 -3.2977,7.18462 -3.20716,8.04604 0.0905,0.86142 5.24302,6.45328 4.80994,7.2034 z"
         inkscape:randomized="0"
         inkscape:rounded="0.1"
         inkscape:flatsided="false"
         sodipodi:arg2="1.1519173"
         sodipodi:arg1="0.52359878"
         sodipodi:r2="6.5217004"
         sodipodi:r1="13.043401"
         sodipodi:cy="906.30617"
         sodipodi:cx="719.27547"
         sodipodi:sides="5"
         id="path4412"
         style="opacity:0.03599997;fill:#7600fa;fill-opacity:1;fill-rule:nonzero;stroke:#000000;stroke-width:5;stroke-linecap:round;stroke-linejoin:bevel;stroke-miterlimit:4;stroke-dasharray:none;stroke-dashoffset:0;stroke-opacity:1"
         sodipodi:type="star" />
      <path
         sodipodi:type="star"
         style="opacity:0.03599997;fill:#7600fa;fill-opacity:1;fill-rule:nonzero;stroke:#000000;stroke-width:5;stroke-linecap:round;stroke-linejoin:bevel;stroke-miterlimit:4;stroke-dasharray:none;stroke-dashoffset:0;stroke-opacity:1"
         id="path4414"
         sodipodi:sides="5"
         sodipodi:cx="266.10192"
         sodipodi:cy="920.3116"
         sodipodi:r1="30.898726"
         sodipodi:r2="15.449363"
         sodipodi:arg1="0.52359878"
         sodipodi:arg2="1.1519173"
         inkscape:flatsided="true"
         inkscape:rounded="0.1"
         inkscape:randomized="0"
         d="m 292.86101,935.76095 c -1.81618,3.14572 -29.6303,15.52936 -33.18329,14.77415 -3.55298,-0.75521 -23.92557,-23.38125 -24.30525,-26.99372 -0.37969,-3.61246 14.84349,-29.97977 18.16181,-31.45719 3.31833,-1.47741 33.09935,4.85274 35.52988,7.55211 2.43052,2.69937 5.61303,32.97893 3.79685,36.12465 z"
         inkscape:transform-center-y="-7.2097028" />
    </g>
  </g>
</svg>
